# AST/ASF file generated using VICON BodyLanguage
# -----------------------------------------------
:version 1.10
:name VICON
:units
  mass 1.0
  length 0.45
  angle deg
:documentation
   .ast/.asf automatically generated from VICON data using
   VICON BodyBuilder and BodyLanguage model FoxedUp or BRILLIANT.MOD
:root
   order TX TY TZ RX RY RZ
   axis XYZ
   position 0 0 0  
   orientation 0 0 0 
:bonedata
  begin
     id 1 
     name lhipjoint
     direction 0.578396 -0.714046 0.394458 
     length 2.21935 
     axis 0 0 0  XYZ
  end
  begin
     id 2 
     name lfemur
     direction 0.34202 -0.939693 0  
     length 6.39105  
     axis 0 0 20  XYZ
    dof rx ry rz
    limits (-160.0 20.0)
           (-70.0 70.0)
           (-60.0 70.0)
  end
  begin
     id 3 
     name ltibia
     direction 0.34202 -0.939693 0   
     length 6.99037   
     axis 0 0 20   XYZ
    dof rx
    limits (-10.0 170.0)
  end
  begin
     id 4 
     name lfoot
     direction 0.0582372 -0.160005 0.985397   
     length 2.06111   
     axis -90 7.62852e-016 20   XYZ
    dof rx rz
    limits (-45.0 90.0)
           (-70.0 20.0)
  end
  begin
     id 5 
     name ltoes
     direction 1.53556e-011 -4.21875e-011 1   
     length 1.04074   
     axis -90 7.62852e-016 20   XYZ
    dof rx
    limits (-90.0 20.0)
  end
  begin
     id 6 
     name rhipjoint
     direction -0.558179 -0.726269 0.40121   
     length 2.182  
     axis 0 0 0  XYZ 
  end
  begin
     id 7 
     name rfemur
     direction -0.34202 -0.939693 0   
     length 6.51172   
     axis 0 0 -20   XYZ
    dof rx ry rz
    limits (-160.0 20.0)
           (-70.0 70.0)
           (-70.0 60.0)
  end
  begin
     id 8 
     name rtibia
     direction -0.34202 -0.939693 0   
     length 7.02607   
     axis 0 0 -20   XYZ
    dof rx
    limits (-10.0 170.0)
 end
 begin
     id 9 
     name rfoot
     direction -0.0788856 -0.216737 0.973038   
     length 1.96734  
     axis -90 -7.62852e-016 -20   XYZ
    dof rx rz
    limits (-45.0 90.0)
           (-20.0 70.0)
  end
  begin
     id 10 
     name rtoes
     direction -1.53567e-011 -4.21783e-011 1   
     length 0.990825   
     axis -90 -7.62852e-016 -20   XYZ
    dof rx
    limits (-90.0 20.0)
  end
  begin
     id 11 
     name lowerback
     direction 0.00668177 0.999323 -0.0361741   
     length 1.7655   
     axis 0 0 0   XYZ
    dof rx ry rz
    limits (-20.0 45.0)
           (-30.0 30.0)
           (-30.0 30.0)
  end
  begin
     id 12 
     name upperback
     direction -0.00222086 0.99851 0.0545167   
     length 1.74912   
     axis 0 0 0   XYZ
    dof rx ry rz
    limits (-20.0 45.0)
           (-30.0 30.0)
           (-30.0 30.0)
  end
  begin
     id 13 
     name thorax
     direction -0.00733971 0.997496 0.0703443   
     length 1.75715   
     axis 0 0 0   XYZ
    dof rx ry rz
    limits (-20.0 45.0)
           (-30.0 30.0)
           (-30.0 30.0)
  end
  begin
     id 14 
     name lowerneck
     direction 0.0279797 0.994795 0.0979765   
     length 1.46939   
     axis 0 0 0   XYZ
    dof rx ry rz
    limits (-20.0 45.0)
           (-30.0 30.0)
           (-30.0 30.0)
  end
  begin
     id 15 
     name upperneck
     direction 0.00339187 0.976776 -0.214238   
     length 1.48018   
     axis 0 0 0   XYZ
    dof rx ry rz
    limits (-20.0 45.0)
           (-30.0 30.0)
           (-30.0 30.0)
  end
  begin
     id 16
     name head
     direction -0.00263506 0.996603 -0.0823096  
     length 1.4976  
     axis 0 0 0   XYZ
    dof rx ry rz
    limits (-20.0 45.0)
           (-30.0 30.0)
           (-30.0 30.0)
  end
  begin
     id 17 
     name lclavicle
     direction 0.894044 0.44508 -0.0508781  
     length 3.03024  
     axis 0 0 0   XYZ
    dof ry rz
    limits (-20.0 10.0)
           (0.0 20.0)
  end
  begin
     id 18 
     name lhumerus
     direction 1 -4.48961e-011 -2.39475e-018   
     length 4.4661   
     axis 180 -30 -90   XYZ
    dof rx ry rz
    limits (-60.0 90.0)
           (-90.0 90.0)
           (-90.0 90.0)
  end
  begin
     id 19
     name lradius
     direction 1 -4.48961e-011 9.29328e-028   
     length 3.41414   
     axis 180 -30 -90   XYZ
    dof rx
    limits (-10.0 170.0)
  end
  begin
     id 20
     name lwrist
     direction 1 -4.48985e-011 1.53461e-026   
     length 1.70707   
     axis -1.09697e-014 90 90   XYZ
    dof ry
    limits (-180.0 0.0)
 end
  begin
     id 21 
     name lhand
     direction 1 -4.48966e-011 3.06923e-026   
     length 0.328298   
     axis -1.95843e-014 90 90   XYZ
    dof rx rz
    limits (-90.0 90.0)
           (-45.0 45.0)
  end
  begin
     id 22 
     name lfingers
     direction 1 -4.48893e-011 6.13845e-026   
     length 0.264682   
     axis -3.91686e-014 90 90   XYZ
    dof rx
    limits (0.0 90.0)
  end
  begin
     id 23
     name lthumb
     direction 0.707107 -6.34876e-011 0.707107   
     length 0.380032   
     axis -90 45 2.85299e-015   XYZ
    dof rx rz
    limits (-45.0 45.0)
           (-45.0 45.0)
  end
  begin
     id 24 
     name rclavicle
     direction -0.936955 0.347862 -0.0332887   
     length 3.26927  
     axis 0 0 0   XYZ 
    dof ry rz
    limits (-10.0 20.0)
           (-20.0 0.0)
  end
  begin
     id 25 
     name rhumerus
     direction -1 -4.4896e-011 1.78637e-018  
     length 4.40431   
     axis 180 30 90   XYZ
    dof rx ry rz
    limits (-90.0 60.0)
           (-90.0 90.0)
           (-90.0 90.0)
  end
  begin
     id 26 
     name rradius
     direction -1 -4.48955e-011 9.34036e-027   
     length 3.04688   
     axis 180 30 90   XYZ
    dof rx
    limits (-10.0 170.0)
  end
  begin
     id 27 
     name rwrist
     direction -1 -4.49011e-011 1.53461e-026   
     length 1.52344   
     axis -1.09697e-014 -90 -90   XYZ
    dof ry
    limits (-180.0 0.0)
  end
  begin
     id 28
     name rhand
     direction -1 -4.48834e-011 3.06923e-026   
     length 0.500489   
     axis -1.95843e-014 -90 -90   XYZ
    dof rx rz
    limits (-90.0 90.0)
           (-45.0 45.0)
  end
  begin
     id 29
     name rfingers
     direction -1 -4.48967e-011 6.13845e-026   
     length 0.403507   
     axis -3.91686e-014 -90 -90   XYZ
    dof rx
    limits (0.0 90.0)
  end
  begin
     id 30
     name rthumb
     direction -0.707107 -6.34826e-011 0.707107   
     length 0.579358   
     axis -90 -45 -2.85299e-015   XYZ
    dof rx rz
    limits (-45.0 45.0)
           (-45.0 45.0)
  end
:hierarchy
  begin
    root lhipjoint rhipjoint lowerback
    lhipjoint lfemur
    lfemur ltibia
    ltibia lfoot
    lfoot ltoes
    rhipjoint rfemur
    rfemur rtibia
    rtibia rfoot
    rfoot rtoes
    lowerback upperback
    upperback thorax
    thorax lowerneck lclavicle rclavicle
    lowerneck upperneck
    upperneck head
    lclavicle lhumerus
    lhumerus lradius
    lradius lwrist
    lwrist lhand lthumb
    lhand lfingers
    rclavicle rhumerus
    rhumerus rradius
    rradius rwrist
    rwrist rhand rthumb
    rhand rfingers
  end

#!OML:ASF H:\IndianDance\Patient Classification 1\Patient 1\Session 1\dancer.ASF
:FULLY-SPECIFIED
:DEGREES
940
root -3.34093 14.306 11.4146 -167.736 21.6533 -180.3
lowerback 11.2094 -0.105955 -1.55307
upperback -5.36862 -0.152018 1.43807
thorax -12.1707 0.161744 2.4745
lowerneck -14.4162 -9.52869 -8.61484
upperneck 19.5516 -13.4155 11.8171
head 10.0186 -5.45654 3.72553
rclavicle 2.54444e-014 4.45278e-014
rhumerus -11.4125 58.751 -40.5037
rradius 103.687
rwrist 9.09052
rhand -48.2989 55.6291
rfingers 7.12502
rthumb -20.9556 386.741
lclavicle 2.54444e-014 4.45278e-014
lhumerus 39.821 -64.1375 -1.88579
lradius 106.564
lwrist -2.33932
lhand -47.2221 -31.664
lfingers 7.12502
lthumb -19.9207 -362.665
rfemur -415.735 -24.1997 390.099
rtibia 67.2623
rfoot -22.8869 3.09757
rtoes -15.9391
lfemur 142.833 152.163 154.436
ltibia 61.0604
lfoot -26.2223 -3.31876
ltoes 1.29496
941
root -3.34414 14.2819 11.4195 -168.179 21.5201 -180.598
lowerback 11.2026 -0.0182658 -1.79189
upperback -5.38522 -0.0880037 1.31468
thorax -12.1897 0.204895 2.4609
lowerneck -14.3981 -9.50852 -8.5642
upperneck 20.028 -13.3892 11.6711
head 10.1659 -5.42924 3.67781
rclavicle 1.19768e-014 -1.27222e-014
rhumerus -12.6968 59.1575 -41.5307
rradius 104.023
rwrist 9.66139
rhand -48.261 55.9753
rfingers 7.12502
rthumb -20.9191 387.083
lclavicle 1.19768e-014 -1.27222e-014
lhumerus 39.7433 -64.7652 -2.93781
lradius 106.643
lwrist -2.84204
lhand -47.4716 -32.4199
lfingers 7.12502
lthumb -20.1606 -363.446
rfemur -415.854 -24.6706 389.52
rtibia 68.6681
rfoot -22.9588 1.77096
rtoes -16.7125
lfemur 143.304 152.233 154.247
ltibia 60.9048
lfoot -26.6749 -3.07817
ltoes 2.09257
942
root -3.34508 14.2588 11.4244 -168.66 21.3175 -180.888
lowerback 11.2166 0.0395672 -2.0012
upperback -5.38886 -0.0607825 1.18706
thorax -12.2045 0.227623 2.43392
lowerneck -14.3748 -9.46158 -8.49314
upperneck 20.4752 -13.3246 11.5197
head 10.2965 -5.38479 3.63118
rclavicle 5.03174e-014 3.97569e-016
rhumerus -13.9014 59.565 -42.527
rradius 104.18
rwrist 10.117
rhand -48.2679 56.2423
rfingers 7.12502
rthumb -20.9258 387.351
lclavicle 5.03174e-014 3.97569e-016
lhumerus 39.5791 -65.3853 -3.82424
lradius 106.705
lwrist -3.28363
lhand -47.5765 -33.0993
lfingers 7.12502
lthumb -20.2614 -364.136
rfemur -415.837 -25.1302 388.874
rtibia 70.1621
rfoot -22.9289 0.259099
rtoes -16.0685
lfemur 143.787 152.347 154.134
ltibia 60.836
lfoot -27.0393 -2.97511
ltoes 2.67215
943
root -3.34401 14.237 11.4291 -169.157 21.0395 -181.145
lowerback 11.2404 0.0684031 -2.15596
upperback -5.38142 -0.0640193 1.06062
thorax -12.2106 0.231246 2.38387
lowerneck -14.3497 -9.39433 -8.39983
upperneck 20.8963 -13.2315 11.3625
head 10.4129 -5.32724 3.58338
rclavicle 4.22417e-016 -1.19271e-015
rhumerus -15.0385 59.9465 -43.5057
rradius 104.112
rwrist 10.4814
rhand -48.2752 56.5145
rfingers 7.12502
rthumb -20.9328 387.624
lclavicle 4.22417e-016 -1.19271e-015
lhumerus 39.3343 -65.996 -4.53061
lradius 106.745
lwrist -3.63953
lhand -47.5303 -33.7982
lfingers 7.12502
lthumb -20.217 -364.83
rfemur -415.669 -25.5717 388.176
rtibia 71.7053
rfoot -22.8404 -1.33438
rtoes -14.1391
lfemur 144.276 152.529 154.117
ltibia 60.8483
lfoot -27.3082 -2.90777
ltoes 2.82742
944
root -3.34119 14.2163 11.4334 -169.656 20.6886 -181.362
lowerback 11.2555 0.0724314 -2.2456
upperback -5.35905 -0.0893855 0.939717
thorax -12.1928 0.218781 2.30761
lowerneck -14.3321 -9.31196 -8.30942
upperneck 21.2891 -13.1149 11.2146
head 10.5198 -5.25927 3.5426
rclavicle 1.3741e-014 7.15625e-015
rhumerus -16.1043 60.301 -44.451
rradius 103.802
rwrist 10.7521
rhand -48.3231 56.7849
rfingers 7.12502
rthumb -20.9789 387.899
lclavicle 1.3741e-014 7.15625e-015
lhumerus 39.0095 -66.5924 -5.0464
lradius 106.755
lwrist -3.96821
lhand -47.4014 -34.5097
lfingers 7.12502
lthumb -20.0931 -365.529
rfemur -415.342 -25.9786 387.426
rtibia 73.2442
rfoot -22.7199 -2.89538
rtoes -11.2365
lfemur 144.753 152.796 154.19
ltibia 60.942
lfoot -27.4988 -2.86317
ltoes 2.58826
945
root -3.33641 14.1958 11.4373 -170.136 20.2696 -181.528
lowerback 11.2526 0.0554604 -2.26361
upperback -5.32938 -0.129737 0.826465
thorax -12.1545 0.193538 2.20226
lowerneck -14.3151 -9.22224 -8.22806
upperneck 21.659 -12.9861 11.0814
head 10.6198 -5.18583 3.5102
rclavicle -5.39203e-015 -1.35174e-014
rhumerus -17.1441 60.6322 -45.3989
rradius 103.242
rwrist 10.9303
rhand -48.4212 57.0583
rfingers 7.12502
rthumb -21.0731 388.183
lclavicle -5.39203e-015 -1.35174e-014
lhumerus 38.6056 -67.1846 -5.37036
lradius 106.735
lwrist -4.28008
lhand -47.2399 -35.2715
lfingers 7.12502
lthumb -19.9379 -366.274
rfemur -414.856 -26.3312 386.643
rtibia 74.7019
rfoot -22.5713 -4.32946
rtoes -7.76637
lfemur 145.19 153.145 154.347
ltibia 61.1237
lfoot -27.6355 -2.80674
ltoes 1.93501
946
root -3.32954 14.1748 11.4407 -170.581 19.7904 -181.633
lowerback 11.2205 0.0248995 -2.20908
upperback -5.29469 -0.174249 0.723273
thorax -12.0925 0.16081 2.06758
lowerneck -14.2976 -9.13338 -8.16433
upperneck 22.003 -12.8572 10.9721
head 10.7143 -5.11218 3.48899
rclavicle 3.7943e-014 1.78906e-014
rhumerus -18.1973 60.9352 -46.3712
rradius 102.445
rwrist 11.0089
rhand -48.5607 57.3193
rfingers 7.12502
rthumb -21.2071 388.459
lclavicle 3.7943e-014 1.78906e-014
lhumerus 38.1724 -67.7633 -5.53861
lradius 106.678
lwrist -4.56826
lhand -47.1049 -36.0545
lfingers 7.12502
lthumb -19.8081 -367.044
rfemur -414.209 -26.6051 385.849
rtibia 75.9808
rfoot -22.3512 -5.55883
rtoes -4.09887
lfemur 145.562 153.565 154.577
ltibia 61.3945
lfoot -27.7308 -2.71685
ltoes 0.981559
947
root -3.32045 14.1527 11.4436 -170.977 19.2603 -181.677
lowerback 11.1476 -0.0125577 -2.08814
upperback -5.25825 -0.21448 0.631418
thorax -12.0042 0.125352 1.90654
lowerneck -14.2747 -9.05211 -8.12532
upperneck 22.3171 -12.7379 10.8941
head 10.8029 -5.04283 3.48137
rclavicle -1.63997e-015 9.54166e-015
rhumerus -19.2939 61.2066 -47.3812
rradius 101.438
rwrist 10.9823
rhand -48.7223 57.5517
rfingers 7.12502
rthumb -21.3623 388.709
lclavicle -1.63997e-015 9.54166e-015
lhumerus 37.7264 -68.3267 -5.55936
lradius 106.585
lwrist -4.80846
lhand -47.0381 -36.8207
lfingers 7.12502
lthumb -19.7439 -367.803
rfemur -413.397 -26.773 385.062
rtibia 76.9678
rfoot -21.9846 -6.56095
rtoes -0.856888
lfemur 145.851 154.038 154.861
ltibia 61.7502
lfoot -27.8072 -2.57728
ltoes -0.15527
948
root -3.30872 14.13 11.4458 -171.317 18.6909 -181.647
lowerback 11.0192 -0.0494145 -1.92682
upperback -5.21538 -0.242286 0.572562
thorax -11.8758 0.0940498 1.75568
lowerneck -14.2436 -8.9841 -8.11996
upperneck 22.5935 -12.6333 10.8424
head 10.8826 -4.98232 3.48602
rclavicle -5.82688e-015 1.98785e-015
rhumerus -20.4162 61.4578 -48.3864
rradius 100.269
rwrist 10.8486
rhand -48.8878 57.6915
rfingers 7.12502
rthumb -21.5213 388.867
lclavicle -5.82688e-015 1.98785e-015
lhumerus 37.241 -68.8612 -5.38963
lradius 106.461
lwrist -4.93361
lhand -47.0433 -37.5212
lfingers 7.12502
lthumb -19.7489 -368.504
rfemur -412.408 -26.8012 384.315
rtibia 77.5545
rfoot -21.6158 -7.19384
rtoes 1.5655
lfemur 146.053 154.535 155.2
ltibia 62.1791
lfoot -27.8772 -2.40098
ltoes -1.28558
949
root -3.29407 14.1069 11.4472 -171.598 18.0914 -181.539
lowerback 10.8321 -0.0803865 -1.74511
upperback -5.16496 -0.252942 0.559185
thorax -11.7045 0.0714181 1.6388
lowerneck -14.2064 -8.93281 -8.15411
upperneck 22.8315 -12.5465 10.8125
head 10.954 -4.93325 3.50171
rclavicle 4.44408e-014 5.96354e-015
rhumerus -21.5599 61.7004 -49.3681
rradius 98.9957
rwrist 10.6331
rhand -49.0512 57.6976
rfingers 7.12502
rthumb -21.6782 388.891
lclavicle 4.44408e-014 5.96354e-015
lhumerus 36.6939 -69.3642 -4.99759
lradius 106.304
lwrist -4.90698
lhand -47.1186 -38.0895
lfingers 7.12502
lthumb -19.8213 -369.08
rfemur -411.234 -26.6715 383.639
rtibia 77.6704
rfoot -21.3576 -7.49971
rtoes 3.35928
lfemur 146.174 155.033 155.595
ltibia 62.6647
lfoot -27.9447 -2.19915
ltoes -2.27277
950
root -3.27682 14.084 11.4476 -171.819 17.4728 -181.357
lowerback 10.6012 -0.109778 -1.52691
upperback -5.12032 -0.252374 0.571949
thorax -11.5143 0.053185 1.52712
lowerneck -14.1639 -8.89444 -8.20607
upperneck 23.0494 -12.4782 10.8069
head 11.0224 -4.89228 3.52615
rclavicle 4.69008e-014 -1.98785e-016
rhumerus -22.7783 61.9394 -50.4126
rradius 97.6666
rwrist 10.3996
rhand -49.2005 57.5793
rfingers 7.12502
rthumb -21.8216 388.79
lclavicle 4.69008e-014 -1.98785e-016
lhumerus 36.0645 -69.8469 -4.40955
lradius 106.138
lwrist -4.69595
lhand -47.2323 -38.5022
lfingers 7.12502
lthumb -19.9306 -369.504
rfemur -409.896 -26.3906 383.064
rtibia 77.3019
rfoot -21.3167 -7.57533
rtoes 4.20497
lfemur 146.22 155.515 156.034
ltibia 63.1894
lfoot -28.0128 -1.9799
ltoes -3.04947
951
root -3.25702 14.062 11.4468 -171.991 16.8482 -181.112
lowerback 10.3286 -0.134775 -1.30178
upperback -5.07915 -0.241242 0.619101
thorax -11.3036 0.0417278 1.44636
lowerneck -14.1288 -8.86567 -8.27647
upperneck 23.2578 -12.4214 10.8144
head 11.0925 -4.85696 3.55625
rclavicle -2.56929e-014 5.36719e-015
rhumerus -24.0307 62.1845 -51.4785
rradius 96.3344
rwrist 10.2056
rhand -49.3257 57.3799
rfingers 7.12502
rthumb -21.9417 388.604
lclavicle -2.56929e-014 5.36719e-015
lhumerus 35.3151 -70.2993 -3.59504
lradius 105.969
lwrist -4.30467
lhand -47.3595 -38.7392
lfingers 7.12502
lthumb -20.0529 -369.754
rfemur -408.417 -25.9768 382.614
rtibia 76.5074
rfoot -21.6201 -7.48968
rtoes 4.31972
lfemur 146.209 155.963 156.512
ltibia 63.7359
lfoot -28.0784 -1.7712
ltoes -3.54894
952
root -3.23529 14.041 11.4452 -172.122 16.2248 -180.82
lowerback 10.0298 -0.155327 -1.07898
upperback -5.04484 -0.222467 0.6912
thorax -11.0857 0.0361018 1.39217
lowerneck -14.1065 -8.84091 -8.35022
upperneck 23.4639 -12.3706 10.8301
head 11.1662 -4.82333 3.58869
rclavicle 1.1691e-014 7.15625e-015
rhumerus -25.3142 62.4347 -52.5772
rradius 95.0418
rwrist 10.1211
rhand -49.4434 57.1147
rfingers 7.12502
rthumb -22.0548 388.352
lclavicle 1.1691e-014 7.15625e-015
lhumerus 34.4166 -70.7101 -2.55135
lradius 105.828
lwrist -3.73283
lhand -47.4512 -38.9013
lfingers 7.12502
lthumb -20.141 -369.925
rfemur -406.856 -25.4728 382.305
rtibia 75.3947
rfoot -22.3184 -7.34345
rtoes 3.87062
lfemur 146.152 156.38 157.015
ltibia 64.2903
lfoot -28.1339 -1.58732
ltoes -3.76728
953
root -3.21226 14.0209 11.4433 -172.222 15.6144 -180.513
lowerback 9.72173 -0.16873 -0.884443
upperback -5.02429 -0.197423 0.77766
thorax -10.8782 0.0372812 1.36813
lowerneck -14.108 -8.81669 -8.41205
upperneck 23.6808 -12.3207 10.8381
head 11.2475 -4.78868 3.61592
rclavicle 2.84821e-014 1.98785e-015
rhumerus -26.6252 62.6875 -53.7116
rradius 93.8176
rwrist 10.2099
rhand -49.564 56.8922
rfingers 7.12502
rthumb -22.1705 388.144
lclavicle 2.84821e-014 1.98785e-015
lhumerus 33.393 -71.0761 -1.31732
lradius 105.704
lwrist -3.098
lhand -47.5375 -38.9894
lfingers 7.12502
lthumb -20.2239 -370.022
rfemur -405.298 -24.9308 382.137
rtibia 74.1082
rfoot -23.3821 -7.24201
rtoes 3.25589
lfemur 146.055 156.772 157.516
ltibia 64.8388
lfoot -28.1776 -1.45752
ltoes -3.67657
954
root -3.18862 14.0014 11.4418 -172.302 15.0212 -180.205
lowerback 9.42987 -0.175938 -0.71274
upperback -5.02174 -0.16814 0.862673
thorax -10.7012 0.0431812 1.3548
lowerneck -14.145 -8.78454 -8.44093
upperneck 23.9156 -12.2626 10.8304
head 11.3383 -4.74701 3.63283
rclavicle -3.82039e-015 -1.45113e-014
rhumerus -27.9601 62.934 -54.8865
rradius 92.6929
rwrist 10.4911
rhand -49.6824 56.7637
rfingers 7.12502
rthumb -22.2842 388.029
lclavicle -3.82039e-015 -1.45113e-014
lhumerus 32.278 -71.3889 0.0502668
lradius 105.599
lwrist -2.49539
lhand -47.6192 -39.0704
lfingers 7.12502
lthumb -20.3025 -370.112
rfemur -403.829 -24.404 382.113
rtibia 72.8026
rfoot -24.7 -7.28498
rtoes 2.8337
lfemur 145.93 157.15 158.005
ltibia 65.3664
lfoot -28.2163 -1.35226
ltoes -3.43166
